<svg width="20" height="34" viewBox="0 0 20 34" fill="none" xmlns="http://www.w3.org/2000/svg">
<path d="M5.94003 33.21C5.78003 33.21 5.62002 33.1799 5.46002 33.1099C5.00002 32.9099 4.71004 32.4502 4.73004 31.9502L5.27001 19.3399L0.770014 16.6099C0.460014 16.4199 0.250037 16.1003 0.200037 15.7403C0.150037 15.3803 0.270034 15.02 0.510034 14.75L13.13 1.23C13.49 0.85 14.06 0.739981 14.53 0.959981C15 1.17998 15.28 1.70023 15.21 2.22023L13.42 14.9903L18.9 18.19C19.22 18.38 19.44 18.6998 19.49 19.0698C19.54 19.4398 19.42 19.8098 19.16 20.0698L6.80001 32.8301C6.57001 33.0701 6.25002 33.2002 5.93002 33.2002L5.94003 33.21ZM3.30001 15.3198L7.14004 17.6499C7.52004 17.8799 7.74003 18.29 7.72003 18.73L7.28002 28.8799L16.36 19.5098L11.51 16.6699C11.09 16.4199 10.86 15.95 10.92 15.46L12.29 5.66994L3.29003 15.3101L3.30001 15.3198Z" fill="#00213C"/>
</svg>
