<svg width="27" height="20" viewBox="0 0 27 20" fill="none" xmlns="http://www.w3.org/2000/svg">
<path d="M10.23 9.6001C10.54 8.6701 10.7 7.59992 10.7 6.41992C10.7 5.23992 10.54 4.16998 10.23 3.22998C9.90998 2.26998 9.37 1.5102 8.62 0.950195C7.87 0.400195 6.85003 0.109863 5.59003 0.109863C4.33003 0.109863 3.33002 0.390195 2.58002 0.950195C1.83002 1.5002 1.28997 2.26998 0.969971 3.22998C0.659971 4.15998 0.5 5.22992 0.5 6.41992C0.5 7.60992 0.659971 8.6701 0.969971 9.6001C1.28997 10.5601 1.83002 11.3199 2.58002 11.8799C3.33002 12.4299 4.34003 12.7202 5.59003 12.7202C6.84003 12.7202 7.87 12.4399 8.62 11.8799C9.37 11.3299 9.90998 10.5601 10.23 9.6001ZM5.59003 10.6299C4.85003 10.6299 4.25999 10.4599 3.85999 10.1099C3.43999 9.74986 3.16 9.2799 3 8.6499C2.83 7.9999 2.75 7.25016 2.75 6.41016C2.75 5.57016 2.84 4.80992 3 4.16992C3.16 3.54992 3.44999 3.05996 3.85999 2.70996C4.25999 2.36996 4.84003 2.18994 5.59003 2.18994C6.34003 2.18994 6.93998 2.35996 7.34998 2.70996C7.75998 3.05996 8.04997 3.54992 8.21997 4.16992C8.39997 4.81992 8.48999 5.57016 8.48999 6.41016C8.48999 7.25016 8.39997 7.9999 8.21997 8.6499C8.04997 9.2699 7.75998 9.75986 7.34998 10.1099C6.94998 10.4499 6.36003 10.6299 5.59003 10.6299Z" fill="black"/>
<path d="M18.17 0.169922C18.12 0.0999219 18.05 0.0600586 17.96 0.0600586H16.19C16.09 0.0600586 16 0.119961 15.96 0.209961L8.05998 18.8198C8.02998 18.8998 8.04 18.9901 8.08 19.0601C8.13 19.1301 8.19996 19.1699 8.28996 19.1699H10.06C10.16 19.1699 10.25 19.11 10.29 19.02L18.19 0.410156C18.22 0.330156 18.21 0.239922 18.17 0.169922Z" fill="black"/>
<path d="M25.92 9.66016C25.59 8.70016 25.05 7.94014 24.32 7.39014C23.58 6.83014 22.57 6.5498 21.33 6.5498C20.09 6.5498 19.05 6.83014 18.3 7.39014C17.55 7.94014 17.01 8.70992 16.69 9.66992C16.38 10.5999 16.22 11.6699 16.22 12.8599C16.22 14.0499 16.38 15.11 16.69 16.04C17.01 17 17.55 17.7598 18.3 18.3198C19.05 18.8698 20.07 19.1499 21.33 19.1499C22.59 19.1499 23.58 18.8701 24.32 18.3101C25.06 17.7601 25.6 16.99 25.92 16.04C26.24 15.11 26.4 14.0401 26.4 12.8501C26.4 11.6601 26.24 10.6002 25.92 9.66016ZM21.33 17.0698C20.57 17.0698 19.98 16.8998 19.57 16.5498C19.16 16.1998 18.86 15.7098 18.7 15.0898C18.52 14.4398 18.43 13.6901 18.43 12.8501C18.43 12.0101 18.52 11.2599 18.7 10.6099C18.87 9.98986 19.16 9.4999 19.57 9.1499C19.97 8.8099 20.56 8.62988 21.33 8.62988C22.1 8.62988 22.66 8.7999 23.06 9.1499C23.47 9.4999 23.76 9.98986 23.92 10.6099C24.09 11.2599 24.17 12.0101 24.17 12.8501C24.17 13.6901 24.08 14.4398 23.92 15.0898C23.76 15.7098 23.47 16.1998 23.06 16.5498C22.66 16.8898 22.08 17.0698 21.33 17.0698Z" fill="black"/>
</svg>
