<svg width="26" height="26" viewBox="0 0 26 26" fill="none" xmlns="http://www.w3.org/2000/svg">
<path d="M5.63 16.8701L8.65002 20.2402C9.04002 20.6702 9.73994 20.5302 9.93994 19.9902L13.65 9.8999L16.7 16.1201C16.92 16.5701 17.57 16.5701 17.79 16.1201L24.79 1.74023C24.9 1.52023 24.81 1.26016 24.59 1.16016C24.37 1.05016 24.11 1.13986 24 1.35986L17.25 15.27L14.24 9.12012C13.97 8.58012 13.18 8.61994 12.97 9.18994L9.18005 19.52L6.31006 16.3198C5.89006 15.8498 5.11996 15.94 4.82996 16.5L1.43005 22.96V1.31006C1.43005 1.07006 1.22999 0.870117 0.98999 0.870117C0.74999 0.870117 0.550049 1.07006 0.550049 1.31006V24.1899C0.550049 24.7399 0.990039 25.1802 1.54004 25.1802H24.42C24.66 25.1802 24.86 24.9802 24.86 24.7402C24.86 24.5002 24.66 24.2998 24.42 24.2998H1.71997L5.63 16.8599V16.8701Z" fill="#00213C" stroke="#00213C" stroke-width="0.5" stroke-linecap="round" stroke-linejoin="round"/>
<path d="M24.4301 25.3501H1.55005C0.910049 25.3501 0.400024 24.8302 0.400024 24.2002V1.31982C0.400024 0.989824 0.67 0.720215 1 0.720215C1.33 0.720215 1.59998 0.989824 1.59998 1.31982V22.2998L4.68994 16.4302C4.84994 16.1202 5.16001 15.9099 5.51001 15.8599C5.86001 15.8199 6.20994 15.95 6.43994 16.21L9.12 19.2002L12.8199 9.12012C12.9399 8.79012 13.23 8.58006 13.58 8.56006C13.93 8.54006 14.24 8.72004 14.39 9.04004L17.25 14.8799L23.85 1.27979C23.92 1.12979 24.04 1.02021 24.2 0.970215C24.35 0.920215 24.52 0.93 24.66 1C24.95 1.15 25.0801 1.5098 24.9301 1.7998L17.9301 16.1802C17.8001 16.4502 17.53 16.6099 17.24 16.6099C16.94 16.6099 16.68 16.4402 16.55 16.1802L13.67 10.2998L10.1 20.0298C9.98998 20.3398 9.73002 20.5601 9.40002 20.6201C9.08002 20.6801 8.75003 20.5701 8.53003 20.3301L5.66003 17.1299L1.98999 24.1099H24.42C24.75 24.1099 25.02 24.38 25.02 24.71C25.02 25.04 24.75 25.3101 24.42 25.3101L24.4301 25.3501ZM1 1.0498C0.85 1.0498 0.72998 1.16982 0.72998 1.31982V24.2002C0.72998 24.6602 1.10006 25.0298 1.56006 25.0298H24.4399C24.5899 25.0298 24.71 24.9098 24.71 24.7598C24.71 24.6098 24.5899 24.4902 24.4399 24.4902H1.73999C1.67999 24.4902 1.62998 24.4602 1.59998 24.4102C1.56998 24.3602 1.56998 24.3 1.59998 24.25L5.51001 16.8101C5.51001 16.8101 5.58001 16.7302 5.64001 16.7202C5.69001 16.7202 5.75003 16.73 5.78003 16.77L8.80005 20.1401C8.94005 20.3001 9.14999 20.3701 9.35999 20.3301C9.56999 20.2901 9.74006 20.1502 9.81006 19.9502L13.52 9.85986C13.54 9.79986 13.6 9.76 13.67 9.75C13.73 9.75 13.8 9.77984 13.83 9.83984L16.88 16.0601C16.96 16.2201 17.11 16.3101 17.28 16.3101C17.45 16.3101 17.6001 16.2201 17.6801 16.0601L24.6801 1.68018C24.7501 1.55018 24.6801 1.38006 24.5601 1.31006C24.4901 1.28006 24.42 1.2698 24.35 1.2998C24.28 1.3198 24.2199 1.36994 24.1899 1.43994L17.4399 15.3501C17.4099 15.4101 17.36 15.4399 17.29 15.4399C17.23 15.4399 17.17 15.4001 17.14 15.3501L14.13 9.2002C14.02 8.9702 13.8 8.89016 13.63 8.91016C13.46 8.91016 13.25 9.01 13.17 9.25L9.38 19.5801C9.36 19.6301 9.31001 19.6699 9.26001 19.6899C9.20001 19.6999 9.14999 19.6901 9.10999 19.6401L6.23999 16.4399C6.06999 16.2599 5.83997 16.1702 5.58997 16.2002C5.33997 16.2302 5.14002 16.3698 5.02002 16.5898L1.62 23.0498C1.58 23.1198 1.51005 23.1499 1.43005 23.1299C1.36005 23.1099 1.30005 23.0502 1.30005 22.9702V1.31982C1.30005 1.16982 1.18003 1.0498 1.03003 1.0498H1Z" fill="#00213C" stroke="#00213C" stroke-width="0.5" stroke-linecap="round" stroke-linejoin="round"/>
</svg>
