<svg width="25" height="30" viewBox="0 0 25 30" fill="none" xmlns="http://www.w3.org/2000/svg">
<path d="M23.33 11.2C23.11 11.2 22.92 11.3797 22.92 11.6097V21.2L12.14 28.3597L1.35999 21.2V3.81967L2.01001 3.56967C8.54001 1.01967 15.74 1.01967 22.27 3.56967L22.67 3.72982L12.26 17.1097L8.80005 13.8997C8.64005 13.7497 8.37998 13.7598 8.22998 13.9198C8.07998 14.0798 8.09 14.3401 8.25 14.4901L12.04 17.9998C12.12 18.0698 12.2099 18.1097 12.3199 18.1097C12.3299 18.1097 12.34 18.1097 12.35 18.1097C12.46 18.1097 12.57 18.04 12.64 17.95L23.66 3.79965C23.66 3.79965 23.6799 3.75984 23.6899 3.74984C23.6899 3.72984 23.71 3.72004 23.72 3.70004C23.72 3.70004 23.72 3.69002 23.72 3.68002C23.72 3.65002 23.73 3.62994 23.73 3.59994C23.73 3.57994 23.73 3.54963 23.73 3.52963C23.73 3.49963 23.72 3.48004 23.71 3.45004C23.71 3.42004 23.6999 3.39973 23.6899 3.37973C23.6799 3.35973 23.66 3.33967 23.65 3.31967C23.63 3.29967 23.62 3.27961 23.6 3.25961C23.6 3.25961 23.6 3.25008 23.59 3.24008C23.57 3.23008 23.56 3.2198 23.54 3.2098C23.52 3.2098 23.51 3.19002 23.49 3.18002L22.58 2.81967C15.86 0.189668 8.44998 0.189668 1.72998 2.81967L0.819946 3.18002C0.659946 3.24002 0.560059 3.3899 0.560059 3.5599V21.4398C0.560059 21.5798 0.62999 21.6996 0.73999 21.7796L11.9301 29.2098C12.0001 29.2598 12.08 29.2796 12.15 29.2796C12.22 29.2796 12.31 29.2598 12.37 29.2098L23.5601 21.7796C23.6701 21.6996 23.74 21.5798 23.74 21.4398V11.6297C23.74 11.4097 23.56 11.2201 23.33 11.2201V11.2Z" fill="#00213C" stroke="#00213C" stroke-width="0.5" stroke-miterlimit="10"/>
<path d="M12.14 29.3902C12.03 29.3902 11.92 29.3598 11.83 29.2998L0.640015 21.8701C0.480015 21.7701 0.390015 21.5902 0.390015 21.4102V3.5298C0.390015 3.2998 0.52999 3.09979 0.73999 3.00979L1.65002 2.64992C8.41002 0.00992179 15.85 0.00992179 22.61 2.64992L23.52 3.00979C23.52 3.00979 23.57 3.03982 23.59 3.04982C23.61 3.05982 23.64 3.06986 23.66 3.08986C23.67 3.08986 23.69 3.1199 23.7 3.1299C23.72 3.1299 23.74 3.17021 23.76 3.20021C23.78 3.23021 23.7999 3.26006 23.8199 3.29006C23.8299 3.32006 23.84 3.35014 23.85 3.37014C23.87 3.43014 23.87 3.46025 23.88 3.49025C23.88 3.52025 23.88 3.5501 23.88 3.5801C23.88 3.6201 23.88 3.65998 23.86 3.70998C23.84 3.76998 23.8201 3.79008 23.8101 3.81008C23.8101 3.82008 23.78 3.8699 23.77 3.8799L12.75 18.0298C12.65 18.1498 12.51 18.2303 12.36 18.2403C12.36 18.2403 12.3201 18.2403 12.3101 18.2403C12.1701 18.2403 12.0301 18.1899 11.9301 18.0899L8.14001 14.5698C7.91001 14.3598 7.89999 14.0098 8.10999 13.7798C8.31999 13.5498 8.67002 13.54 8.90002 13.75L12.24 16.8501L22.42 3.77004L22.21 3.68996C15.71 1.14996 8.56006 1.14996 2.06006 3.68996L1.5 3.91018V21.1099L12.13 28.1699L22.76 21.1099V11.6001C22.76 11.2901 23.0099 11.0401 23.3199 11.0401C23.6299 11.0401 23.88 11.2901 23.88 11.6001V21.4102C23.88 21.6002 23.79 21.7701 23.63 21.8701L12.4399 29.2998C12.3499 29.3598 12.24 29.3902 12.13 29.3902H12.14ZM12.14 0.98C8.63001 0.98 5.11002 1.62996 1.77002 2.93996L0.859985 3.29982C0.759985 3.33982 0.699951 3.43006 0.699951 3.54006V21.4199C0.699951 21.5099 0.740059 21.5799 0.810059 21.6299L12 29.0601C12.08 29.1201 12.2 29.1201 12.28 29.0601L23.47 21.6299C23.54 21.5799 23.58 21.4999 23.58 21.4199V11.6099C23.58 11.4699 23.47 11.3599 23.33 11.3599C23.19 11.3599 23.08 11.4699 23.08 11.6099V21.2002C23.08 21.2502 23.05 21.3001 23.01 21.3301L12.23 28.4903C12.18 28.5203 12.1101 28.5203 12.0601 28.4903L1.28003 21.3301C1.28003 21.3301 1.20996 21.2502 1.20996 21.2002V3.81984C1.20996 3.75984 1.25006 3.7002 1.31006 3.6802L1.95996 3.4302C8.52996 0.860195 15.76 0.860195 22.33 3.4302L22.73 3.58986C22.73 3.58986 22.8099 3.64996 22.8199 3.68996C22.8299 3.73996 22.82 3.78984 22.79 3.81984L12.38 17.2002C12.38 17.2002 12.31 17.2498 12.27 17.2598C12.23 17.2598 12.19 17.2502 12.15 17.2202L8.68994 14.0098C8.58994 13.9198 8.42996 13.92 8.32996 14.02C8.23996 14.12 8.23997 14.2799 8.33997 14.3799L12.13 17.8902C12.13 17.8902 12.24 17.96 12.3 17.96C12.39 17.96 12.46 17.9199 12.5 17.8599L23.52 3.70998C23.52 3.70998 23.52 3.6902 23.53 3.6802C23.53 3.6802 23.54 3.65992 23.55 3.64992V3.64016C23.55 3.63016 23.55 3.60986 23.55 3.58986V3.54006V3.49025L23.54 3.43996C23.54 3.43996 23.51 3.40992 23.51 3.39992C23.49 3.37992 23.48 3.36988 23.48 3.35988C23.48 3.35988 23.48 3.36012 23.47 3.35012C23.46 3.35012 23.4399 3.33986 23.4399 3.33986C23.4299 3.33986 23.41 3.32008 23.4 3.31008L22.5 2.95998C19.16 1.64998 15.64 1.00002 12.13 1.00002L12.14 0.98Z" fill="#00213C" stroke="#00213C" stroke-width="0.5" stroke-miterlimit="10"/>
</svg>
