<svg width="77" height="77" viewBox="0 0 77 77" fill="none" xmlns="http://www.w3.org/2000/svg">
<mask id="mask0_69_4375" style="mask-type:luminance" maskUnits="userSpaceOnUse" x="0" y="0" width="77" height="77">
<path d="M59.89 0.959961H17.55C8.24399 0.959961 0.700012 8.50406 0.700012 17.8101V60.1499C0.700012 69.4559 8.24399 77 17.55 77H59.89C69.196 77 76.74 69.4559 76.74 60.1499V17.8101C76.74 8.50406 69.196 0.959961 59.89 0.959961Z" fill="white"/>
</mask>
<g mask="url(#mask0_69_4375)">
<path d="M131.38 25.7002H-3.03003V32.1099H131.38V25.7002Z" fill="#C90038"/>
<path d="M131.38 12.9102H-3.03003V19.3101H131.38V12.9102Z" fill="#C90038"/>
<path d="M131.38 0.129883H-3.03003V6.52979H131.38V0.129883Z" fill="#C90038"/>
<path d="M131.38 38.4902H-3.03003V44.8999H131.38V38.4902Z" fill="#C90038"/>
<path d="M131.38 51.2598H-3.03003V57.6699H131.38V51.2598Z" fill="#C90038"/>
<path d="M131.38 64.0601H-3.03003V70.46H131.38V64.0601Z" fill="#C90038"/>
<path d="M131.38 76.8198H-3.03003V83.2202H131.38V76.8198Z" fill="#C90038"/>
<path d="M131.38 19.3101H-3.03003V25.71H131.38V19.3101Z" fill="white"/>
<path d="M131.38 6.52979H-3.03003V12.9302H131.38V6.52979Z" fill="white"/>
<path d="M131.38 32.1001H-3.03003V38.5H131.38V32.1001Z" fill="white"/>
<path d="M131.38 44.8701H-3.03003V51.27H131.38V44.8701Z" fill="white"/>
<path d="M131.38 57.6602H-3.03003V64.0601H131.38V57.6602Z" fill="white"/>
<path d="M131.38 70.4399H-3.03003V76.8398H131.38V70.4399Z" fill="white"/>
<path d="M47.23 -11.23H-3.03003V40.2998H47.23V-11.23Z" fill="#00448D"/>
<path d="M38.97 9.27979L39.5 10.7798L38.23 9.83984V9.83008L38.22 9.83984L36.96 10.7798L37.49 9.27979H37.5L36.19 8.39014H37.76L38.19 6.89014L38.68 8.39014H40.28L38.96 9.27979H38.97Z" fill="white"/>
<path d="M38.97 17.1099L39.5 18.6001L38.23 17.6602H38.22L36.96 18.6001L37.49 17.1099L37.5 17.1001L36.19 16.21H37.76L38.19 14.7002L38.68 16.21V16.2202V16.21H40.28L38.96 17.1001L38.97 17.1099Z" fill="white"/>
<path d="M38.97 24.9302L39.5 26.4199L38.23 25.48V25.4702L38.22 25.48L36.96 26.4199L37.49 24.9302L37.5 24.9102L36.19 24.0298H37.76L38.19 22.52L38.68 24.0298H40.28L38.96 24.9102L38.97 24.9302Z" fill="white"/>
<path d="M38.97 32.7402L39.5 34.23L38.23 33.2998V33.29L38.22 33.2998L36.96 34.23L37.49 32.7402L37.5 32.73L36.19 31.8398H37.76L38.19 30.3398L38.68 31.8398V31.8501V31.8398H40.28L38.96 32.73L38.97 32.7402Z" fill="white"/>
<path d="M30.66 9.27979L31.19 10.7798L29.92 9.83984V9.83008L29.91 9.83984L28.64 10.7798L29.18 9.27979H29.19H29.18L27.87 8.39014H29.45L29.88 6.89014L30.37 8.39014H30.36H30.37H31.96L30.65 9.27979H30.64H30.66Z" fill="white"/>
<path d="M30.66 17.1099L31.19 18.6001L29.92 17.6602H29.91L28.64 18.6001L29.18 17.1099L29.19 17.1001H29.18L27.87 16.21H29.45L29.88 14.7002L30.37 16.21L30.36 16.2202L30.37 16.21H31.96L30.65 17.1001H30.64L30.66 17.1099Z" fill="white"/>
<path d="M30.66 24.9302L31.19 26.4199L29.92 25.48V25.4702L29.91 25.48L28.64 26.4199L29.18 24.9302L29.19 24.9102H29.18L27.87 24.0298H29.45L29.88 22.52L30.37 24.0298H30.36H30.37H31.96L30.65 24.9102H30.64L30.66 24.9302Z" fill="white"/>
<path d="M30.66 32.7402L31.19 34.23L29.92 33.2998V33.29L29.91 33.2998L28.64 34.23L29.18 32.7402L29.19 32.73H29.18L27.87 31.8398H29.45L29.88 30.3398L30.37 31.8398L30.36 31.8501L30.37 31.8398H31.96L30.65 32.73H30.64L30.66 32.7402Z" fill="white"/>
<path d="M22.34 9.27979L22.88 10.7798L21.6 9.83984V9.83008V9.83984L20.33 10.7798L20.86 9.27979H20.88H20.86L19.55 8.39014H21.13L21.56 6.89014L22.05 8.39014H22.06H23.65L22.33 9.27979H22.34Z" fill="white"/>
<path d="M22.34 17.1099L22.88 18.6001L21.6 17.6602L20.33 18.6001L20.86 17.1099L20.88 17.1001H20.86L19.55 16.21H21.13L21.56 14.7002L22.05 16.21V16.2202L22.06 16.21H23.65L22.33 17.1001L22.34 17.1099Z" fill="white"/>
<path d="M22.34 24.9302L22.88 26.4199L21.6 25.48V25.4702V25.48L20.33 26.4199L20.86 24.9302L20.88 24.9102H20.86L19.55 24.0298H21.13L21.56 22.52L22.05 24.0298H22.06H23.65L22.33 24.9102L22.34 24.9302Z" fill="white"/>
<path d="M22.34 32.7402L22.88 34.23L21.6 33.2998V33.29V33.2998L20.33 34.23L20.86 32.7402L20.88 32.73H20.86L19.55 31.8398H21.13L21.56 30.3398L22.05 31.8398V31.8501L22.06 31.8398H23.65L22.33 32.73L22.34 32.7402Z" fill="white"/>
<path d="M14.17 9.27979L14.7 10.7798L13.43 9.83984V9.83008V9.83984L12.15 10.7798L12.68 9.27979H12.7H12.69L11.38 8.39014H12.96L13.39 6.89014L13.88 8.39014H13.87H13.88H15.47L14.16 9.27979H14.15H14.17Z" fill="white"/>
<path d="M14.17 17.1099L14.7 18.6001L13.43 17.6602L12.15 18.6001L12.68 17.1099L12.7 17.1001H12.69L11.38 16.21H12.96L13.39 14.7002L13.88 16.21L13.87 16.2202L13.88 16.21H15.47L14.16 17.1001H14.15L14.17 17.1099Z" fill="white"/>
<path d="M14.17 24.9302L14.7 26.4199L13.43 25.48V25.4702V25.48L12.15 26.4199L12.68 24.9302L12.7 24.9102H12.69L11.38 24.0298H12.96L13.39 22.52L13.88 24.0298H13.87H13.88H15.47L14.16 24.9102H14.15L14.17 24.9302Z" fill="white"/>
<path d="M14.17 32.7402L14.7 34.23L13.43 33.2998V33.29V33.2998L12.15 34.23L12.68 32.7402L12.7 32.73H12.69L11.38 31.8398H12.96L13.39 30.3398L13.88 31.8398L13.87 31.8501L13.88 31.8398H15.47L14.16 32.73H14.15L14.17 32.7402Z" fill="white"/>
<path d="M5.97998 9.27979L6.52002 10.7798L5.23999 9.83984V9.83008V9.83984L3.96997 10.7798L4.5 9.27979H4.52002H4.51001L3.20001 8.39014H4.78003L5.21002 6.89014L5.70001 8.39014H7.28998L5.96997 9.27979H5.97998Z" fill="white"/>
<path d="M5.97998 17.1099L6.52002 18.6001L5.23999 17.6602L3.96997 18.6001L4.5 17.1099L4.52002 17.1001H4.51001L3.20001 16.21H4.78003L5.21002 14.7002L5.70001 16.21V16.2202V16.21H7.28998L5.96997 17.1001L5.97998 17.1099Z" fill="white"/>
<path d="M5.97998 24.9302L6.52002 26.4199L5.23999 25.48V25.4702V25.48L3.96997 26.4199L4.5 24.9302L4.52002 24.9102H4.51001L3.20001 24.0298H4.78003L5.21002 22.52L5.70001 24.0298H7.28998L5.96997 24.9102L5.97998 24.9302Z" fill="white"/>
<path d="M5.97998 32.7402L6.52002 34.23L5.23999 33.2998V33.29V33.2998L3.96997 34.23L4.5 32.7402L4.52002 32.73H4.51001L3.20001 31.8398H4.78003L5.21002 30.3398L5.70001 31.8398V31.8501V31.8398H7.28998L5.96997 32.73L5.97998 32.7402Z" fill="white"/>
<path d="M43 13.1899L43.53 14.6802L42.26 13.75V13.7402V13.75L40.99 14.6802L41.52 13.1899L41.54 13.1802H41.53L40.22 12.29H41.79L42.22 10.7798L42.71 12.29V12.2998V12.29H44.31L42.99 13.1802L43 13.1899Z" fill="white"/>
<path d="M43 21.0098L43.53 22.5098L42.26 21.5601L40.99 22.5098L41.52 21.0098L41.54 21H41.53L40.22 20.1201H41.79L42.22 18.6099L42.71 20.1201H44.31L42.99 21L43 21.0098Z" fill="white"/>
<path d="M43 28.8301L43.53 30.3398L42.26 29.3901L40.99 30.3398L41.52 28.8301H41.54H41.53L40.22 27.9399L41.79 27.9502L42.22 26.4399L42.71 27.9399V27.9502L44.31 27.9399L42.99 28.8301H43Z" fill="white"/>
<path d="M43 36.6602L43.53 38.1602L42.26 37.2202V37.21V37.2202L40.99 38.1602L41.52 36.6602H41.54H41.53L40.22 35.77H41.79L42.22 34.27L42.71 35.77V35.7798V35.77H44.31L42.99 36.6602H43Z" fill="white"/>
<path d="M43 5.41016L43.53 6.8999L42.26 5.97021V5.95996V5.97021L40.99 6.8999L41.52 5.41016L41.54 5.39014H41.53L40.22 4.50977H41.79L42.22 3L42.71 4.50977V4.52002V4.50977H44.31L42.99 5.39014L43 5.41016Z" fill="white"/>
<path d="M34.87 13.1899L35.4 14.6802L34.13 13.75V13.7402V13.75L32.86 14.6802L33.39 13.1899L33.41 13.1802H33.4L32.09 12.29H33.67L34.09 10.7798L34.58 12.29V12.2998L34.59 12.29H36.17L34.86 13.1802L34.87 13.1899Z" fill="white"/>
<path d="M34.87 21.0098L35.4 22.5098L34.13 21.5601L32.86 22.5098L33.39 21.0098L33.41 21H33.4L32.09 20.1201H33.67L34.09 18.6099L34.58 20.1201H34.59H36.17L34.86 21L34.87 21.0098Z" fill="white"/>
<path d="M34.87 28.8301L35.4 30.3398L34.13 29.3901L32.86 30.3398L33.39 28.8301H33.41H33.4L32.09 27.9399L33.67 27.9502L34.09 26.4399L34.58 27.9399V27.9502H34.59L36.17 27.9399L34.86 28.8301H34.87Z" fill="white"/>
<path d="M34.87 36.6602L35.4 38.1602L34.13 37.2202V37.21V37.2202L32.86 38.1602L33.39 36.6602H33.41H33.4L32.09 35.77H33.67L34.09 34.27L34.58 35.77V35.7798L34.59 35.77H36.17L34.86 36.6602H34.87Z" fill="white"/>
<path d="M34.87 5.41016L35.4 6.8999L34.13 5.97021V5.95996V5.97021L32.86 6.8999L33.39 5.41016L33.41 5.39014H33.4L32.09 4.50977H33.67L34.09 3L34.58 4.50977V4.52002L34.59 4.50977H36.17L34.86 5.39014L34.87 5.41016Z" fill="white"/>
<path d="M26.42 13.1899L26.95 14.6802L25.68 13.75V13.7402V13.75L24.41 14.6802L24.94 13.1899L24.95 13.1802H24.94L23.64 12.29H25.21L25.64 10.7798L26.13 12.29V12.2998L26.14 12.29H27.72L26.41 13.1802H26.4L26.42 13.1899Z" fill="white"/>
<path d="M26.42 21.0098L26.95 22.5098L25.68 21.5601L24.41 22.5098L24.94 21.0098L24.95 21H24.94L23.64 20.1201H25.21L25.64 18.6099L26.13 20.1201H26.14H27.72L26.41 21H26.4L26.42 21.0098Z" fill="white"/>
<path d="M26.42 28.8301L26.95 30.3398L25.68 29.3901L24.41 30.3398L24.94 28.8301H24.95H24.94L23.64 27.9399L25.21 27.9502L25.64 26.4399L26.13 27.9399V27.9502H26.14L27.72 27.9399L26.41 28.8301H26.4H26.42Z" fill="white"/>
<path d="M26.42 36.6602L26.95 38.1602L25.68 37.2202V37.21V37.2202L24.41 38.1602L24.94 36.6602H24.95H24.94L23.64 35.77H25.21L25.64 34.27L26.13 35.77V35.7798L26.14 35.77H27.72L26.41 36.6602H26.4H26.42Z" fill="white"/>
<path d="M26.42 5.41016L26.95 6.8999L25.68 5.97021V5.95996V5.97021L24.41 6.8999L24.94 5.41016L24.95 5.39014H24.94L23.64 4.50977H25.21L25.64 3L26.13 4.50977V4.52002L26.14 4.50977H27.72L26.41 5.39014H26.4L26.42 5.41016Z" fill="white"/>
<path d="M18.15 13.1899L18.68 14.6802L17.42 13.75L17.41 13.7402V13.75L16.14 14.6802L16.67 13.1899L16.68 13.1802H16.67L15.37 12.29H16.94L17.37 10.7798L17.86 12.29V12.2998V12.29H19.46L18.14 13.1802L18.15 13.1899Z" fill="white"/>
<path d="M18.15 21.0098L18.68 22.5098L17.42 21.5601H17.41L16.14 22.5098L16.67 21.0098L16.68 21H16.67L15.37 20.1201H16.94L17.37 18.6099L17.86 20.1201H19.46L18.14 21L18.15 21.0098Z" fill="white"/>
<path d="M18.15 28.8301L18.68 30.3398L17.42 29.3901H17.41L16.14 30.3398L16.67 28.8301H16.68H16.67L15.37 27.9399L16.94 27.9502L17.37 26.4399L17.86 27.9399V27.9502L19.46 27.9399L18.14 28.8301H18.15Z" fill="white"/>
<path d="M18.15 36.6602L18.68 38.1602L17.42 37.2202L17.41 37.21V37.2202L16.14 38.1602L16.67 36.6602H16.68H16.67L15.37 35.77H16.94L17.37 34.27L17.86 35.77V35.7798V35.77H19.46L18.14 36.6602H18.15Z" fill="white"/>
<path d="M18.15 5.41016L18.68 6.8999L17.42 5.97021L17.41 5.95996V5.97021L16.14 6.8999L16.67 5.41016L16.68 5.39014H16.67L15.37 4.50977H16.94L17.37 3L17.86 4.50977V4.52002V4.50977H19.46L18.14 5.39014L18.15 5.41016Z" fill="white"/>
<path d="M10.06 13.1899L10.59 14.6802L9.32001 13.75V13.7402L9.31 13.75L8.03998 14.6802L8.58002 13.1899L8.59003 13.1802H8.58002L7.27002 12.29H8.84003L9.28003 10.7798L9.77002 12.29V12.2998V12.29H11.36L10.05 13.1802H10.04L10.06 13.1899Z" fill="white"/>
<path d="M10.06 21.0098L10.59 22.5098L9.32001 21.5601H9.31L8.03998 22.5098L8.58002 21.0098L8.59003 21H8.58002L7.27002 20.1201H8.84003L9.28003 18.6099L9.77002 20.1201H11.36L10.05 21H10.04L10.06 21.0098Z" fill="white"/>
<path d="M10.06 28.8301L10.59 30.3398L9.32001 29.3901H9.31L8.03998 30.3398L8.58002 28.8301H8.59003H8.58002L7.27002 27.9399L8.84003 27.9502L9.28003 26.4399L9.77002 27.9399V27.9502L11.36 27.9399L10.05 28.8301H10.04H10.06Z" fill="white"/>
<path d="M10.06 36.6602L10.59 38.1602L9.32001 37.2202V37.21L9.31 37.2202L8.03998 38.1602L8.58002 36.6602H8.59003H8.58002L7.27002 35.77H8.84003L9.28003 34.27L9.77002 35.77V35.7798V35.77H11.36L10.05 36.6602H10.04H10.06Z" fill="white"/>
<path d="M10.06 5.41016L10.59 6.8999L9.32001 5.97021V5.95996L9.31 5.97021L8.03998 6.8999L8.58002 5.41016L8.59003 5.39014H8.58002L7.27002 4.50977H8.84003L9.28003 3L9.77002 4.50977V4.52002V4.50977H11.36L10.05 5.39014H10.04L10.06 5.41016Z" fill="white"/>
<path d="M1.83002 13.1899L2.35999 14.6802L1.09003 13.75L1.08002 13.7402V13.75L-0.190002 14.6802L0.349976 13.1899L0.359985 13.1802L-0.960022 12.29H0.619995L1.04999 10.7798L1.53998 12.29V12.2998V12.29H3.13L1.82001 13.1802H1.81L1.83002 13.1899Z" fill="white"/>
<path d="M1.83002 21.0098L2.35999 22.5098L1.09003 21.5601H1.08002L-0.190002 22.5098L0.349976 21.0098L0.359985 21L-0.960022 20.1201H0.619995L1.04999 18.6099L1.53998 20.1201H3.13L1.82001 21H1.81L1.83002 21.0098Z" fill="white"/>
<path d="M1.83002 28.8301L2.35999 30.3398L1.09003 29.3901H1.08002L-0.190002 30.3398L0.349976 28.8301H0.359985L-0.960022 27.9399L0.619995 27.9502L1.04999 26.4399L1.53998 27.9399V27.9502L3.13 27.9399L1.82001 28.8301H1.81H1.83002Z" fill="white"/>
<path d="M1.83002 36.6602L2.35999 38.1602L1.09003 37.2202L1.08002 37.21V37.2202L-0.190002 38.1602L0.349976 36.6602H0.359985L-0.960022 35.77H0.619995L1.04999 34.27L1.53998 35.77V35.7798V35.77H3.13L1.82001 36.6602H1.81H1.83002Z" fill="white"/>
<path d="M1.83002 5.41016L2.35999 6.8999L1.09003 5.97021L1.08002 5.95996V5.97021L-0.190002 6.8999L0.349976 5.41016L0.359985 5.39014L-0.960022 4.50977H0.619995L1.04999 3L1.53998 4.50977V4.52002V4.50977H3.13L1.82001 5.39014H1.81L1.83002 5.41016Z" fill="white"/>
</g>
</svg>
