<svg width="77" height="77" viewBox="0 0 77 77" fill="none" xmlns="http://www.w3.org/2000/svg">
<mask id="mask0_69_5144" style="mask-type:luminance" maskUnits="userSpaceOnUse" x="0" y="0" width="77" height="77">
<path d="M59.24 0.959961H16.9C7.59403 0.959961 0.0500488 8.50406 0.0500488 17.8101V60.1499C0.0500488 69.4559 7.59403 77 16.9 77H59.24C68.546 77 76.09 69.4559 76.09 60.1499V17.8101C76.09 8.50406 68.546 0.959961 59.24 0.959961Z" fill="white"/>
</mask>
<g mask="url(#mask0_69_5144)">
<path d="M111.5 0.959961H0.0500488V42.3101H111.5V0.959961Z" fill="white"/>
<path d="M41.4 0.959961H0.0500488V42.3101H41.4V0.959961Z" fill="#0137A1"/>
<path d="M111.5 42.2998H0.0500488V83.6499H111.5V42.2998Z" fill="#D80128"/>
<path d="M33.9 18.6699H23.83L20.72 9.1001L17.61 18.6699H7.55005L15.6899 24.5898L12.58 34.1602L20.72 28.25L28.87 34.1602L25.76 24.5898L33.9 18.6699Z" fill="white"/>
</g>
</svg>
