<?xml version="1.0" standalone="no"?>
<!DOCTYPE svg PUBLIC "-//W3C//DTD SVG 1.1//EN" "http://www.w3.org/Graphics/SVG/1.1/DTD/svg11.dtd">
<svg xmlns="http://www.w3.org/2000/svg" width="1416" height="376" viewBox="0 0 1416 376" fill="none">
<path d="M290.551 5.49082H12.47V97.7695H212.569C108.767 113.4 25.242 190.879 0.796661 291.519H85.61C110.454 224.14 175.233 176.077 251.243 176.077C264.761 176.077 277.909 177.652 290.551 180.528V97.8095C290.462 97.7921 290.373 97.7868 290.282 97.7695H290.551V5.49082Z" fill="#70FA7E"/>
<path d="M198.272 291.523H290.551V199.244H198.272V291.523Z" fill="#70FA7E"/>
<path d="M870.789 290.65H911.845V5.69767L870.789 8.163V290.65Z" fill="#367CF4"/>
<path d="M958.642 290.65H1000.11V84.5323L958.642 86.9923V290.65Z" fill="#367CF4"/>
<path d="M979.173 0.773339C965.213 0.773339 953.714 12.268 953.714 26.6373C953.714 40.5973 965.213 52.5 979.173 52.5C993.543 52.5 1005.04 40.5973 1005.04 26.6373C1005.04 12.268 993.543 0.773339 979.173 0.773339Z" fill="#367CF4"/>
<path d="M1063.34 79.6047V84.122H1028.44L1025.16 122.303H1063.34V290.649H1104.4V122.303H1192.67L1195.96 84.122H1104.4V79.6047C1104.4 53.326 1113.43 43.474 1153.67 43.474C1175.02 43.474 1193.9 46.758 1197.6 47.5767L1202.94 10.2127C1195.14 8.57137 1172.97 4.87803 1150.79 4.87803C1110.14 4.87803 1063.34 16.7874 1063.34 79.6047Z" fill="#367CF4"/>
<path d="M1368.81 86.1722L1310.09 251.637L1251.38 84.9388L1206.21 86.9908L1285.05 290.648H1293.67L1256.31 375.227H1303.11L1415.2 84.1215L1368.81 86.1722Z" fill="#367CF4"/>
<path d="M795.452 168.977C795.446 168.987 795.434 169.005 795.424 169.015C789.316 177.091 773.573 181.154 751.117 180.487C717.688 179.467 690.508 185.649 665.434 202.075C663.858 189.981 665.092 169.935 665.092 169.935C670.428 142.833 691.37 119.839 739.409 119.839C769.796 119.839 793.496 131.457 797.194 161.483C797.52 164.113 797.044 166.858 795.452 168.977ZM833.28 139.571L833.258 139.577C818.418 100.095 779.446 80.8341 738.177 80.8341C667.557 80.8341 622.388 123.538 622.388 186.361C622.388 200.478 624.781 213.563 629.253 225.389C598.194 241.523 559.424 249.363 474.504 251.459L637.032 47.5781L640.73 7.74876H421.068L417.777 45.9354H584.476L420.658 252.049L416.96 290.65H419.868C419.868 290.645 419.873 290.645 419.873 290.639C556.033 290.515 607.761 281.347 649.982 258.129C670.83 279.71 702.344 292.293 740.637 292.293C773.074 292.293 807.977 286.127 825.63 277.917L813.721 241.787C796.892 247.537 768.966 253.286 741.461 253.286C714.549 253.286 696.201 246.623 684.129 236.21C706.429 222.323 726.032 218.765 749.94 219.493C786.412 220.609 812.197 211.53 826.544 192.547C833.358 183.547 836.044 174.043 836.733 165.591C837.332 156.322 836.301 147.775 833.432 140.019C833.37 139.846 833.32 139.683 833.28 139.571Z" fill="#367CF4"/>
</svg>