<svg width="228" height="76" viewBox="0 0 228 76" fill="none" xmlns="http://www.w3.org/2000/svg">
<path d="M204.928 58.3895C201.185 58.3106 197.965 57.4039 195.228 55.6298C192.491 53.8557 190.438 51.4508 189.15 48.3757C187.822 45.3006 187.339 41.9101 187.661 38.1254L187.782 36.5484C188.265 32.2511 189.553 28.427 191.605 24.997C193.698 21.5671 196.274 19.0045 199.374 17.2304C202.473 15.4563 205.854 14.6284 209.476 14.7073C214.87 14.8256 218.895 16.7574 221.591 20.5815C224.288 24.4057 225.294 29.3731 224.65 35.5233L224.53 36.4695C224.288 38.2436 222.718 39.5841 220.907 39.5841H200.943C198.609 39.5841 196.798 41.713 197.361 43.9207C197.683 45.34 198.287 46.5622 199.132 47.666C200.742 49.7161 202.956 50.7411 205.814 50.82C208.953 50.9383 211.891 49.9132 214.628 47.8237C216.118 46.6804 218.211 46.8776 219.499 48.218C220.907 49.6767 220.867 51.9633 219.378 53.3037C218.009 54.5653 216.44 55.5903 214.669 56.4183C211.73 57.7981 208.51 58.4683 205.009 58.4289L204.928 58.3895ZM208.953 22.2373C205.532 22.1191 202.714 23.696 200.501 26.9683C198.85 29.3731 200.581 32.6059 203.519 32.6059H215.594L215.755 31.8175C215.957 30.6347 215.957 29.452 215.755 28.3087C215.474 26.4557 214.709 24.997 213.542 23.9326C212.334 22.8681 210.805 22.3162 208.913 22.2373H208.953Z" fill="white"/>
<path d="M18.652 50.1101L34.7519 50.189C35.5166 50.189 36.0801 50.8592 35.9594 51.6082L34.7519 58.3104C34.6311 58.9017 34.1481 59.296 33.5444 59.296H1.22382C0.459078 59.296 -0.104419 58.6258 0.0163299 57.8767L1.02257 52.1602C1.02257 51.9236 1.18357 51.7265 1.34457 51.5688L23.2807 28.2296C24.0052 27.4805 23.4417 26.219 22.3952 26.219L7.66379 26.1401C6.89904 26.1401 6.33555 25.4699 6.4563 24.7208L7.66379 17.9793C7.78454 17.3879 8.26754 16.9937 8.87128 16.9937H40.0246C40.7894 16.9937 41.3529 17.6639 41.2321 18.4129L40.2661 23.8929C40.2661 24.1295 40.1051 24.3266 39.9441 24.4843L17.7665 48.0995C17.042 48.8485 17.6055 50.1101 18.652 50.1101Z" fill="white"/>
<path d="M78.5439 39.1107L86.6743 17.7821C86.8353 17.309 87.3183 16.9937 87.8013 16.9937H96.3343C97.2198 16.9937 97.7833 17.861 97.4613 18.6495L80.3551 58.5075C80.1539 58.9412 79.7111 59.2566 79.2281 59.2566H71.7014C71.0977 59.2566 70.5744 58.7835 70.4939 58.1921L67.9179 36.9818C67.7569 35.7991 66.1067 35.5231 65.5835 36.627L55.1185 58.5863C54.9173 59.02 54.4745 59.296 53.9915 59.296H46.5051C45.8611 59.296 45.3378 58.8229 45.2976 58.1921L42.2788 18.3341C42.2386 17.6244 42.8021 17.0331 43.4863 17.0331H51.496C52.14 17.0331 52.7035 17.5456 52.7035 18.2158L53.2268 38.4405C53.2268 39.7021 55.038 40.0569 55.5613 38.9136L65.342 17.7821C65.5432 17.3485 65.986 17.0725 66.469 17.0725H72.7077C73.3517 17.0725 73.8749 17.5456 73.9152 18.137L76.0886 38.8742C76.2094 40.1357 77.9804 40.3723 78.4634 39.1896L78.5439 39.1107Z" fill="white"/>
<path d="M100.52 59.2961H91.6654C90.9007 59.2961 90.3372 58.6259 90.4579 57.8768L97.5419 18.0188C97.6626 17.4275 98.1456 17.0332 98.7494 17.0332H107.604C108.369 17.0332 108.933 17.7034 108.812 18.4525L101.728 58.3105C101.607 58.9019 101.124 59.2961 100.52 59.2961ZM99.0311 6.30979C98.9909 4.57512 99.5544 3.11642 100.802 1.97311C102.01 0.829806 103.499 0.23844 105.23 0.23844C106.92 0.199016 108.409 0.711532 109.657 1.77599C110.905 2.84045 111.549 4.2203 111.629 5.91555C111.67 7.53195 111.146 8.95122 109.979 10.134C108.812 11.3167 107.323 11.9475 105.471 12.0263C103.781 12.0657 102.332 11.5927 101.084 10.5282C99.8361 9.50316 99.1519 8.08389 99.1116 6.30979H99.0311Z" fill="white"/>
<path d="M170.233 15.6927C162.988 15.7715 156.105 20.2265 151.678 26.8497C149.424 30.2402 147.814 34.2221 147.17 38.4405C147.17 38.5982 147.089 38.7559 147.089 38.9136V38.9924L146.888 40.0963C151.315 38.2434 155.461 36.1933 158.963 34.2221L158.399 27.1651C158.319 26.219 159.285 25.5093 160.21 25.7853L182.992 33.473C183.877 33.7884 184.159 34.8135 183.636 35.5231C184.441 35.9173 184.642 37.0212 183.958 37.652L163.39 57.1277C162.585 57.9161 161.176 57.4036 161.096 56.2603L161.015 55.0776C160.814 54.8805 160.693 54.6045 160.653 54.2891L160.291 50.0707C155.018 51.5294 149.786 52.6727 144.714 53.5006L141.414 73.7253C141.253 74.6715 142.018 75.5388 143.024 75.5388H151.114C151.919 75.5388 152.563 74.9869 152.724 74.1984L155.179 59.2171C157.755 60.873 160.774 61.8191 164.115 61.7797C175.183 61.7009 185.528 51.2534 187.258 38.5194C188.949 25.7459 181.342 15.4955 170.273 15.6138L170.233 15.6927Z" fill="white"/>
<path d="M132.036 30.122C127.689 29.9643 123.1 30.8711 119.075 32.3298C123.261 31.6595 127.89 31.4624 132.478 32.0932C121.53 31.6595 109.133 38.1646 107.805 42.3435C107.805 42.3435 107.845 42.4224 107.886 42.4618C118.351 48.7697 133.444 45.6552 146.204 40.4906C146.324 39.8992 146.445 39.2684 146.526 38.6771C148.216 25.9036 140.609 15.6532 129.54 15.7715C122.295 15.8504 115.412 20.3053 110.985 26.9286C109.657 28.9393 108.53 31.1864 107.725 33.5519C113.158 30.9893 122.698 28.8604 131.995 30.1614L132.036 30.122Z" fill="white"/>
<path d="M105.068 47.4292L100.761 73.8435C100.6 74.7897 101.365 75.657 102.371 75.657H110.462C111.267 75.657 111.911 75.1051 112.072 74.3166L114.527 59.3354C117.103 60.9912 120.122 61.9374 123.462 61.8979C129.258 61.8585 134.853 58.9411 139.119 54.4073C123.422 56.2208 110.26 54.4073 105.108 47.4292H105.068Z" fill="white"/>
<path d="M162.907 55.2354C162.303 55.7873 161.458 55.669 160.975 55.1565L161.056 56.3393C161.136 57.4431 162.545 57.9557 163.35 57.2066L183.918 37.731C184.602 37.1002 184.401 36.0357 183.596 35.6021C183.555 35.6415 183.515 35.7203 183.475 35.7597L162.907 55.2354Z" fill="white"/>
<g style="mix-blend-mode:multiply">
<path d="M162.907 55.2354C162.303 55.7873 161.458 55.669 160.975 55.1565L161.056 56.3393C161.136 57.4431 162.545 57.9557 163.35 57.2066L183.918 37.731C184.602 37.1002 184.401 36.0357 183.596 35.6021C183.555 35.6415 183.515 35.7203 183.475 35.7597L162.907 55.2354Z" fill="white"/>
</g>
<path d="M160.13 48.1392C155.058 49.5584 149.987 50.6623 145.076 51.5297L144.754 53.6191C149.826 52.7912 155.058 51.6479 160.331 50.1892L160.17 48.1392H160.13Z" fill="white"/>
<g style="mix-blend-mode:multiply">
<path d="M160.13 48.1392C155.058 49.5584 149.987 50.6623 145.076 51.5297L144.754 53.6191C149.826 52.7912 155.058 51.6479 160.331 50.1892L160.17 48.1392H160.13Z" fill="white"/>
</g>
<path d="M105.27 46.2466L105.068 47.4293C110.22 54.4468 123.382 56.2209 139.079 54.4074C139.764 53.6978 140.367 52.9487 140.971 52.1602C124.871 54.368 111.066 52.9487 105.27 46.2466Z" fill="white"/>
<g style="mix-blend-mode:multiply">
<path d="M105.27 46.2466L105.068 47.4293C110.22 54.4468 123.382 56.2209 139.079 54.4074C139.764 53.6978 140.367 52.9487 140.971 52.1602C124.871 54.368 111.066 52.9487 105.27 46.2466Z" fill="white"/>
</g>
<path d="M107.845 42.3437C109.133 38.1648 121.53 31.6597 132.518 32.0934C127.93 31.4626 123.301 31.6597 119.115 32.33C111.186 35.1685 105.47 39.9783 107.845 42.3437Z" fill="white"/>
<g style="mix-blend-mode:multiply">
<path d="M107.845 42.3437C109.133 38.1648 121.53 31.6597 132.518 32.0934C127.93 31.4626 123.301 31.6597 119.115 32.33C111.186 35.1685 105.47 39.9783 107.845 42.3437Z" fill="white"/>
</g>
<path d="M204.928 58.3895C201.185 58.3106 197.965 57.4039 195.228 55.6298C192.491 53.8557 190.438 51.4508 189.15 48.3757C187.822 45.3006 187.339 41.9101 187.661 38.1254L187.782 36.5484C188.265 32.2511 189.553 28.427 191.605 24.997C193.698 21.5671 196.274 19.0045 199.374 17.2304C202.473 15.4563 205.854 14.6284 209.476 14.7073C214.87 14.8256 218.895 16.7574 221.591 20.5815C224.288 24.4057 225.294 29.3731 224.65 35.5233L224.53 36.4695C224.288 38.2436 222.718 39.5841 220.907 39.5841H200.943C198.609 39.5841 196.798 41.713 197.361 43.9207C197.683 45.34 198.287 46.5622 199.132 47.666C200.742 49.7161 202.956 50.7411 205.814 50.82C208.953 50.9383 211.891 49.9132 214.628 47.8237C216.118 46.6804 218.211 46.8776 219.499 48.218C220.907 49.6767 220.867 51.9633 219.378 53.3037C218.009 54.5653 216.44 55.5903 214.669 56.4183C211.73 57.7981 208.51 58.4683 205.009 58.4289L204.928 58.3895ZM208.953 22.2373C205.532 22.1191 202.714 23.696 200.501 26.9683C198.85 29.3731 200.581 32.6059 203.519 32.6059H215.594L215.755 31.8175C215.957 30.6347 215.957 29.452 215.755 28.3087C215.474 26.4557 214.709 24.997 213.542 23.9326C212.334 22.8681 210.805 22.3162 208.913 22.2373H208.953Z" fill="white"/>
<path d="M18.652 50.1101L34.7519 50.189C35.5166 50.189 36.0801 50.8592 35.9594 51.6082L34.7519 58.3104C34.6311 58.9017 34.1481 59.296 33.5444 59.296H1.22382C0.459078 59.296 -0.104419 58.6258 0.0163299 57.8767L1.02257 52.1602C1.02257 51.9236 1.18357 51.7265 1.34457 51.5688L23.2807 28.2296C24.0052 27.4805 23.4417 26.219 22.3952 26.219L7.66379 26.1401C6.89904 26.1401 6.33555 25.4699 6.4563 24.7208L7.66379 17.9793C7.78454 17.3879 8.26754 16.9937 8.87128 16.9937H40.0246C40.7894 16.9937 41.3529 17.6639 41.2321 18.4129L40.2661 23.8929C40.2661 24.1295 40.1051 24.3266 39.9441 24.4843L17.7665 48.0995C17.042 48.8485 17.6055 50.1101 18.652 50.1101Z" fill="white"/>
<path d="M78.5439 39.1107L86.6743 17.7821C86.8353 17.309 87.3183 16.9937 87.8013 16.9937H96.3343C97.2198 16.9937 97.7833 17.861 97.4613 18.6495L80.3551 58.5075C80.1539 58.9412 79.7111 59.2566 79.2281 59.2566H71.7014C71.0977 59.2566 70.5744 58.7835 70.4939 58.1921L67.9179 36.9818C67.7569 35.7991 66.1067 35.5231 65.5835 36.627L55.1185 58.5863C54.9173 59.02 54.4745 59.296 53.9915 59.296H46.5051C45.8611 59.296 45.3378 58.8229 45.2976 58.1921L42.2788 18.3341C42.2386 17.6244 42.8021 17.0331 43.4863 17.0331H51.496C52.14 17.0331 52.7035 17.5456 52.7035 18.2158L53.2268 38.4405C53.2268 39.7021 55.038 40.0569 55.5613 38.9136L65.342 17.7821C65.5432 17.3485 65.986 17.0725 66.469 17.0725H72.7077C73.3517 17.0725 73.8749 17.5456 73.9152 18.137L76.0886 38.8742C76.2094 40.1357 77.9804 40.3723 78.4634 39.1896L78.5439 39.1107Z" fill="white"/>
<path d="M100.52 59.2961H91.6654C90.9007 59.2961 90.3372 58.6259 90.4579 57.8768L97.5419 18.0188C97.6626 17.4275 98.1456 17.0332 98.7494 17.0332H107.604C108.369 17.0332 108.933 17.7034 108.812 18.4525L101.728 58.3105C101.607 58.9019 101.124 59.2961 100.52 59.2961ZM99.0311 6.30979C98.9909 4.57512 99.5544 3.11642 100.802 1.97311C102.01 0.829806 103.499 0.23844 105.23 0.23844C106.92 0.199016 108.409 0.711532 109.657 1.77599C110.905 2.84045 111.549 4.2203 111.629 5.91555C111.67 7.53195 111.146 8.95122 109.979 10.134C108.812 11.3167 107.323 11.9475 105.471 12.0263C103.781 12.0657 102.332 11.5927 101.084 10.5282C99.8361 9.50316 99.1519 8.08389 99.1116 6.30979H99.0311Z" fill="white"/>
<path d="M170.233 15.6927C162.988 15.7715 156.105 20.2265 151.678 26.8497C149.424 30.2402 147.814 34.2221 147.17 38.4405C147.17 38.5982 147.089 38.7559 147.089 38.9136V38.9924L146.888 40.0963C151.315 38.2434 155.461 36.1933 158.963 34.2221L158.399 27.1651C158.319 26.219 159.285 25.5093 160.21 25.7853L182.992 33.473C183.877 33.7884 184.159 34.8135 183.636 35.5231C184.441 35.9173 184.642 37.0212 183.958 37.652L163.39 57.1277C162.585 57.9161 161.176 57.4036 161.096 56.2603L161.015 55.0776C160.814 54.8805 160.693 54.6045 160.653 54.2891L160.291 50.0707C155.018 51.5294 149.786 52.6727 144.714 53.5006L141.414 73.7253C141.253 74.6715 142.018 75.5388 143.024 75.5388H151.114C151.919 75.5388 152.563 74.9869 152.724 74.1984L155.179 59.2171C157.755 60.873 160.774 61.8191 164.115 61.7797C175.183 61.7009 185.528 51.2534 187.258 38.5194C188.949 25.7459 181.342 15.4955 170.273 15.6138L170.233 15.6927Z" fill="white"/>
<path d="M132.036 30.122C127.689 29.9643 123.1 30.8711 119.075 32.3298C123.261 31.6595 127.89 31.4624 132.478 32.0932C121.53 31.6595 109.133 38.1646 107.805 42.3435C107.805 42.3435 107.845 42.4224 107.886 42.4618C118.351 48.7697 133.444 45.6552 146.204 40.4906C146.324 39.8992 146.445 39.2684 146.526 38.6771C148.216 25.9036 140.609 15.6532 129.54 15.7715C122.295 15.8504 115.412 20.3053 110.985 26.9286C109.657 28.9393 108.53 31.1864 107.725 33.5519C113.158 30.9893 122.698 28.8604 131.995 30.1614L132.036 30.122Z" fill="white"/>
<path d="M105.068 47.4292L100.761 73.8435C100.6 74.7897 101.365 75.657 102.371 75.657H110.462C111.267 75.657 111.911 75.1051 112.072 74.3166L114.527 59.3354C117.103 60.9912 120.122 61.9374 123.462 61.8979C129.258 61.8585 134.853 58.9411 139.119 54.4073C123.422 56.2208 110.26 54.4073 105.108 47.4292H105.068Z" fill="white"/>
<path d="M162.907 55.2354C162.303 55.7873 161.458 55.669 160.975 55.1565L161.056 56.3393C161.136 57.4431 162.545 57.9557 163.35 57.2066L183.918 37.731C184.602 37.1002 184.401 36.0357 183.596 35.6021C183.555 35.6415 183.515 35.7203 183.475 35.7597L162.907 55.2354Z" fill="white"/>
<path d="M162.907 55.2354C162.303 55.7873 161.458 55.669 160.975 55.1565L161.056 56.3393C161.136 57.4431 162.545 57.9557 163.35 57.2066L183.918 37.731C184.602 37.1002 184.401 36.0357 183.596 35.6021C183.555 35.6415 183.515 35.7203 183.475 35.7597L162.907 55.2354Z" fill="white"/>
<path d="M160.13 48.1392C155.058 49.5584 149.987 50.6623 145.076 51.5297L144.754 53.6191C149.826 52.7912 155.058 51.6479 160.331 50.1892L160.17 48.1392H160.13Z" fill="white"/>
<path d="M160.13 48.1392C155.058 49.5584 149.987 50.6623 145.076 51.5297L144.754 53.6191C149.826 52.7912 155.058 51.6479 160.331 50.1892L160.17 48.1392H160.13Z" fill="white"/>
<path d="M105.27 46.2466L105.068 47.4293C110.22 54.4468 123.382 56.2209 139.079 54.4074C139.764 53.6978 140.367 52.9487 140.971 52.1602C124.871 54.368 111.066 52.9487 105.27 46.2466Z" fill="white"/>
<path d="M105.27 46.2466L105.068 47.4293C110.22 54.4468 123.382 56.2209 139.079 54.4074C139.764 53.6978 140.367 52.9487 140.971 52.1602C124.871 54.368 111.066 52.9487 105.27 46.2466Z" fill="white"/>
<path d="M107.845 42.3437C109.133 38.1648 121.53 31.6597 132.518 32.0934C127.93 31.4626 123.301 31.6597 119.115 32.33C111.186 35.1685 105.47 39.9783 107.845 42.3437Z" fill="white"/>
<path d="M107.845 42.3437C109.133 38.1648 121.53 31.6597 132.518 32.0934C127.93 31.4626 123.301 31.6597 119.115 32.33C111.186 35.1685 105.47 39.9783 107.845 42.3437Z" fill="white"/>
<path d="M227.548 16.4023C227.548 17.9793 226.301 19.2014 224.65 19.2014C223 19.2014 221.752 17.9793 221.752 16.4023C221.752 14.8253 223.04 13.6426 224.65 13.6426C226.26 13.6426 227.548 14.8647 227.548 16.4023ZM222.477 16.4023C222.477 17.6244 223.403 18.61 224.691 18.61C225.979 18.61 226.824 17.6244 226.824 16.4023C226.824 15.1801 225.898 14.1945 224.65 14.1945C223.403 14.1945 222.477 15.1801 222.477 16.4023ZM224.208 17.861H223.564V15.1013C223.805 15.0619 224.167 15.0224 224.65 15.0224C225.174 15.0224 225.415 15.1013 225.616 15.2196C225.777 15.3378 225.898 15.5744 225.898 15.8109C225.898 16.1263 225.657 16.3629 225.294 16.4417C225.576 16.56 225.737 16.7571 225.818 17.1513C225.898 17.585 225.938 17.7427 226.019 17.861H225.335C225.335 17.861 225.214 17.5062 225.093 17.1908C225.053 16.8754 224.852 16.7571 224.489 16.7571H224.167V17.861H224.208ZM224.208 16.284H224.53C224.892 16.284 225.174 16.1657 225.174 15.8898C225.174 15.6532 224.972 15.4561 224.57 15.4561C224.409 15.4561 224.288 15.4561 224.208 15.4561V16.2446V16.284Z" fill="white"/>
</svg>
