<svg width="1024" height="1024" viewBox="0 0 1024 1024" fill="none" xmlns="http://www.w3.org/2000/svg">
<g clip-path="url(#clip0_80610_218)">
<rect width="1024" height="1024" rx="34" fill="#F8F9FA"/>
<g filter="url(#filter0_d_80610_218)">
<rect x="-1" width="1025" height="1024" rx="37" fill="url(#paint0_linear_80610_218)"/>
<path d="M772.02 215.834C701.759 216.617 635.012 260.892 592.076 326.715C570.217 360.411 554.604 399.983 548.358 441.907C548.358 443.474 547.578 445.041 547.578 446.609V447.392L545.626 458.363C588.563 439.948 628.767 419.574 662.726 399.983L657.261 329.85C656.481 320.446 665.849 313.394 674.826 316.137L895.755 392.539C904.342 395.674 907.075 405.861 902 412.913C909.807 416.831 911.759 427.802 905.123 434.071L705.663 627.624C697.856 635.46 684.194 630.366 683.414 619.004L682.633 607.25C680.681 605.291 679.51 602.548 679.12 599.414L675.607 557.49C624.473 571.987 573.73 583.35 524.548 591.577L492.541 792.575C490.979 801.978 498.396 810.598 508.154 810.598H586.611C594.418 810.598 600.663 805.113 602.224 797.277L626.035 648.39C651.016 664.846 680.291 674.249 712.689 673.857C820.031 673.073 920.346 569.244 937.131 442.69C953.525 315.745 879.751 213.875 772.41 215.05L772.02 215.834Z" fill="white"/>
<path d="M401.584 359.236C359.428 357.668 314.93 366.68 275.896 381.177C316.491 374.516 361.379 372.557 405.877 378.826C299.707 374.516 179.484 439.164 166.603 480.696C166.603 480.696 166.993 481.48 167.384 481.871C268.87 544.561 415.245 513.608 538.981 462.281C540.152 456.404 541.323 450.135 542.104 444.258C558.498 317.312 484.725 215.442 377.383 216.617C307.123 217.401 240.376 261.675 197.439 327.499C184.558 347.481 173.629 369.814 165.822 393.323C218.517 367.855 311.026 346.698 401.193 359.627L401.584 359.236Z" fill="white"/>
<path d="M140.056 531.24L98.2908 793.751C96.7294 803.155 104.146 811.774 113.904 811.774H192.361C200.168 811.774 206.413 806.289 207.974 798.453L231.785 649.566C256.766 666.022 286.041 675.425 318.439 675.033C374.647 674.642 428.903 645.648 470.278 600.59C318.048 618.613 190.409 600.59 140.447 531.24H140.056Z" fill="white"/>
<path d="M700.966 608.817C695.111 614.302 686.914 613.127 682.23 608.033L683.011 619.788C683.792 630.758 697.453 635.852 705.26 628.407L904.72 434.854C911.356 428.585 909.404 418.007 901.598 413.697C901.207 414.089 900.817 414.872 900.427 415.264L700.966 608.817Z" fill="white"/>
<path d="M700.966 608.817C695.111 614.302 686.914 613.127 682.23 608.033L683.011 619.788C683.792 630.758 697.453 635.852 705.26 628.407L904.72 434.854C911.356 428.585 909.404 418.007 901.598 413.697C901.207 414.089 900.817 414.872 900.427 415.264L700.966 608.817Z" fill="white"/>
<path d="M674.031 538.292C624.849 552.398 575.667 563.368 528.046 571.988L524.923 592.754C574.105 584.526 624.849 573.163 675.982 558.667L674.421 538.292H674.031Z" fill="white"/>
<path d="M674.031 538.292C624.849 552.398 575.667 563.368 528.046 571.988L524.923 592.754C574.105 584.526 624.849 573.163 675.982 558.667L674.421 538.292H674.031Z" fill="white"/>
<path d="M142.007 519.486L140.056 531.24C190.018 600.982 317.657 618.613 469.887 600.59C476.523 593.538 482.378 586.093 488.233 578.257C332.1 600.198 198.215 586.093 142.007 519.486Z" fill="white"/>
<path d="M142.007 519.486L140.056 531.24C190.018 600.982 317.657 618.613 469.887 600.59C476.523 593.538 482.378 586.093 488.233 578.257C332.1 600.198 198.215 586.093 142.007 519.486Z" fill="white"/>
<path d="M166.994 480.696C179.485 439.164 299.707 374.516 406.268 378.826C361.77 372.557 316.882 374.516 276.287 381.177C199.391 409.387 143.964 457.188 166.994 480.696Z" fill="white"/>
<path d="M166.994 480.696C179.485 439.164 299.707 374.516 406.268 378.826C361.77 372.557 316.882 374.516 276.287 381.177C199.391 409.387 143.964 457.188 166.994 480.696Z" fill="white"/>
</g>
</g>
<defs>
<filter id="filter0_d_80610_218" x="-5" y="0" width="1033" height="1032" filterUnits="userSpaceOnUse" color-interpolation-filters="sRGB">
<feFlood flood-opacity="0" result="BackgroundImageFix"/>
<feColorMatrix in="SourceAlpha" type="matrix" values="0 0 0 0 0 0 0 0 0 0 0 0 0 0 0 0 0 0 127 0" result="hardAlpha"/>
<feOffset dy="4"/>
<feGaussianBlur stdDeviation="2"/>
<feComposite in2="hardAlpha" operator="out"/>
<feColorMatrix type="matrix" values="0 0 0 0 0 0 0 0 0 0 0 0 0 0 0 0 0 0 0.25 0"/>
<feBlend mode="normal" in2="BackgroundImageFix" result="effect1_dropShadow_80610_218"/>
<feBlend mode="normal" in="SourceGraphic" in2="effect1_dropShadow_80610_218" result="shape"/>
</filter>
<linearGradient id="paint0_linear_80610_218" x1="511.5" y1="0" x2="511.5" y2="1024" gradientUnits="userSpaceOnUse">
<stop stop-color="#F26422"/>
<stop offset="1" stop-color="#BD374A"/>
</linearGradient>
<clipPath id="clip0_80610_218">
<rect width="1024" height="1024" rx="34" fill="white"/>
</clipPath>
</defs>
</svg>
