<svg width="24" height="25" viewBox="0 0 24 25" fill="none" xmlns="http://www.w3.org/2000/svg">
<path d="M23.9199 12.4702C23.9199 11.6102 23.85 10.7802 23.71 9.99023H12.2V14.6802H18.7899C18.5099 16.2102 17.65 17.5099 16.35 18.3799V21.4302H20.28C22.58 19.3102 23.9099 16.17 23.9099 12.46" fill="#00213C"/>
<path d="M12.2 24.3799C15.49 24.3799 18.2699 23.2999 20.2899 21.4399L16.36 18.3901C15.27 19.1301 13.86 19.5601 12.21 19.5601C9.02996 19.5601 6.32999 17.4203 5.35999 14.5303H1.30994V17.6699C3.31994 21.6499 7.44996 24.3901 12.21 24.3901" fill="#00213C"/>
<path d="M5.34998 14.52C5.09998 13.78 4.96997 12.9999 4.96997 12.1899C4.96997 11.3799 5.10998 10.5899 5.34998 9.85986V6.72021H1.29993C0.469927 8.37021 0 10.2199 0 12.1899C0 14.1599 0.469927 16.0202 1.29993 17.6602L5.34998 14.52Z" fill="#00213C"/>
<path d="M12.2 4.83008C14 4.83008 15.61 5.45016 16.88 6.66016L20.36 3.18018C18.24 1.21018 15.49 0 12.2 0C7.42995 0 3.30993 2.73021 1.29993 6.72021L5.34998 9.85986C6.31998 6.96986 9.01995 4.83008 12.2 4.83008Z" fill="#00213C"/>
<path d="M16.1599 18L20.51 21.8901" stroke="#D8DCE2" stroke-width="0.25" stroke-miterlimit="10"/>
<path d="M5.66992 14.27L1 17.8901" stroke="#D8DCE2" stroke-width="0.25" stroke-miterlimit="10"/>
<path d="M5.76001 10.1099L0.619995 6.22021" stroke="#D8DCE2" stroke-width="0.25" stroke-miterlimit="10"/>
</svg>
