<svg width="21" height="26" viewBox="0 0 21 26" fill="none" xmlns="http://www.w3.org/2000/svg">
<path d="M17.09 13.4701C17.06 10.3501 19.64 8.82961 19.76 8.75961C18.3 6.62961 16.03 6.3399 15.23 6.3099C13.33 6.1099 11.48 7.45004 10.51 7.45004C9.54004 7.45004 8.02007 6.3297 6.42007 6.3597C4.35007 6.3897 2.41 7.59004 1.35 9.45004C-0.839998 13.25 0.790041 18.8197 2.89004 21.8997C3.94004 23.3997 5.17006 25.0799 6.78006 25.0199C8.35006 24.9499 8.93999 24.0199 10.84 24.0199C12.74 24.0199 13.2701 25.0198 14.9101 24.9798C16.6001 24.9498 17.6601 23.47 18.6701 21.95C19.8901 20.23 20.37 18.5298 20.39 18.4398C20.35 18.4298 17.11 17.19 17.08 13.45" fill="#00213C"/>
<path d="M13.99 4.2998C14.84 3.2398 15.42 1.79984 15.25 0.339844C14.03 0.389844 12.5 1.19021 11.62 2.22021C10.84 3.13021 10.1399 4.62979 10.3199 6.02979C11.6999 6.12979 13.11 5.34004 13.99 4.29004" fill="#00213C"/>
</svg>
