<svg width="34" height="34" viewBox="0 0 34 34" fill="none" xmlns="http://www.w3.org/2000/svg">
<path d="M11.97 0.689941C11.97 9.26994 7.33005 16.9399 0.800049 16.9399C7.34005 16.9399 11.97 24.6199 11.97 33.1899C11.97 24.6099 16.6101 16.9399 23.1401 16.9399C16.6001 16.9399 11.97 9.25994 11.97 0.689941Z" fill="#00213C"/>
<path d="M27.7201 0.689941C27.7201 4.97994 25.4001 8.82007 22.1301 8.82007C25.4001 8.82007 27.7201 12.66 27.7201 16.95C27.7201 12.66 30.0401 8.82007 33.3101 8.82007C30.0401 8.82007 27.7201 4.97994 27.7201 0.689941Z" fill="#00213C"/>
<path d="M25.1801 16.95C25.1801 21.24 22.8601 25.0801 19.5901 25.0801C22.8601 25.0801 25.1801 28.92 25.1801 33.21C25.1801 28.92 27.5001 25.0801 30.7701 25.0801C27.5001 25.0801 25.1801 21.24 25.1801 16.95Z" fill="#00213C"/>
</svg>
