<svg width="38" height="36" viewBox="0 0 38 36" fill="none" xmlns="http://www.w3.org/2000/svg">
<path d="M20.52 10.4299H18.01C16.8 10.4299 15.8199 9.44999 15.8199 8.23999V6.05005C15.8199 4.84005 16.8 3.86011 18.01 3.86011H20.52C21.73 3.86011 22.71 4.84005 22.71 6.05005V8.23999C22.71 9.44999 21.73 10.4299 20.52 10.4299ZM18.01 5.1001C17.49 5.1001 17.0699 5.52004 17.0699 6.04004V8.22998C17.0699 8.74998 17.49 9.16992 18.01 9.16992H20.52C21.04 9.16992 21.46 8.74998 21.46 8.22998V6.04004C21.46 5.52004 21.04 5.1001 20.52 5.1001H18.01Z" fill="#00213C"/>
<path d="M27.72 13.57C27.48 13.57 27.23 13.5198 27 13.4298L19.65 10.3898C19.33 10.2598 19.1801 9.88997 19.3101 9.56997C19.4401 9.24997 19.81 9.09988 20.13 9.22988L27.48 12.2699C27.68 12.3499 27.8899 12.3299 28.0699 12.2099C28.2499 12.0899 28.35 11.8998 28.35 11.6898V2.58999C28.35 2.37999 28.2499 2.18997 28.0699 2.06997C27.8899 1.94997 27.68 1.92991 27.48 2.00991L20.13 5.04995C19.81 5.17995 19.4401 5.02986 19.3101 4.70986C19.1801 4.38986 19.33 4.01979 19.65 3.88979L27 0.849997C27.58 0.609997 28.24 0.669918 28.76 1.01992C29.28 1.36992 29.6 1.94998 29.6 2.57998V11.6798C29.6 12.3098 29.29 12.8899 28.76 13.2399C28.45 13.4499 28.08 13.56 27.72 13.56V13.57Z" fill="#00213C"/>
<path d="M10.8 13.57C10.43 13.57 10.07 13.4599 9.76001 13.2499C9.24001 12.8999 8.92004 12.3198 8.92004 11.6898V2.58999C8.92004 1.95999 9.23001 1.37993 9.76001 1.02993C10.28 0.679928 10.94 0.620006 11.52 0.860006L18.87 3.8998C19.19 4.0298 19.34 4.39987 19.21 4.71987C19.08 5.03987 18.71 5.18996 18.39 5.05996L11.04 2.01992C10.84 1.93992 10.63 1.95998 10.45 2.07998C10.27 2.19998 10.17 2.39 10.17 2.6V11.6999C10.17 11.9099 10.27 12.0999 10.45 12.2199C10.63 12.3399 10.84 12.3599 11.04 12.2799L18.39 9.23989C18.71 9.10989 19.08 9.25998 19.21 9.57998C19.34 9.89998 19.19 10.2698 18.87 10.3998L11.52 13.4398C11.29 13.5398 11.04 13.58 10.8 13.58V13.57Z" fill="#00213C"/>
<path d="M13.9399 21.6699C13.7999 21.6699 13.67 21.6401 13.54 21.5801C13.21 21.4201 13 21.1 13 20.73V11.8799C13 11.5299 13.28 11.25 13.63 11.25C13.98 11.25 14.26 11.5299 14.26 11.8799V20.0601L16.05 18.5701C16.28 18.3801 16.62 18.3801 16.85 18.5701L18.64 20.0601V9.80005C18.64 9.45005 18.92 9.16992 19.27 9.16992C19.62 9.16992 19.9 9.45005 19.9 9.80005V20.72C19.9 21.09 19.69 21.4101 19.36 21.5701C19.03 21.7301 18.64 21.6799 18.36 21.4399L16.46 19.8501L14.5601 21.4399C14.3901 21.5799 14.18 21.6599 13.96 21.6599L13.9399 21.6699Z" fill="#00213C"/>
<path d="M24.28 18.6399C24.11 18.6399 23.94 18.59 23.79 18.5L21.4499 17.0701C21.1499 16.8901 21.0599 16.5 21.2399 16.21C21.4199 15.91 21.8099 15.82 22.0999 16L23.9699 17.1399V11.74C23.9699 11.39 24.2499 11.1101 24.5999 11.1101C24.9499 11.1101 25.2299 11.39 25.2299 11.74V17.7C25.2299 18.04 25.05 18.35 24.75 18.52C24.61 18.6 24.45 18.6399 24.29 18.6399H24.28Z" fill="#00213C"/>
<path d="M35.24 35.1799H2.65002C1.27002 35.1799 0.140015 34.0599 0.140015 32.6699V11.6799C0.140015 10.2999 1.26002 9.16992 2.65002 9.16992H7.04004C7.39004 9.16992 7.67004 9.45005 7.67004 9.80005C7.67004 10.15 7.39004 10.4299 7.04004 10.4299H2.65002C1.96002 10.4299 1.40002 10.9899 1.40002 11.6799V32.6699C1.40002 33.3599 1.96002 33.9199 2.65002 33.9199H35.24C35.93 33.9199 36.49 33.3599 36.49 32.6699V11.6799C36.49 10.9899 35.93 10.4299 35.24 10.4299H31.48C31.13 10.4299 30.85 10.15 30.85 9.80005C30.85 9.45005 31.13 9.16992 31.48 9.16992H35.24C36.62 9.16992 37.75 10.2899 37.75 11.6799V32.6699C37.75 34.0499 36.63 35.1799 35.24 35.1799Z" fill="#00213C"/>
<path d="M37.12 31.4199H0.77002C0.42002 31.4199 0.140015 31.14 0.140015 30.79C0.140015 30.44 0.42002 30.1599 0.77002 30.1599H37.12C37.47 30.1599 37.75 30.44 37.75 30.79C37.75 31.14 37.47 31.4199 37.12 31.4199Z" fill="#00213C"/>
<path d="M37.12 26.72H0.77002C0.42002 26.72 0.140015 26.4401 0.140015 26.0901C0.140015 25.7401 0.42002 25.46 0.77002 25.46H37.12C37.47 25.46 37.75 25.7401 37.75 26.0901C37.75 26.4401 37.47 26.72 37.12 26.72Z" fill="#00213C"/>
<path d="M7.75 23.24H4.75C3.83 23.24 3.07996 22.4901 3.07996 21.5701V19.8201C3.07996 18.9001 3.83 18.1499 4.75 18.1499H7.75C8.67 18.1499 9.42004 18.9001 9.42004 19.8201V21.5701C9.42004 22.4901 8.67 23.24 7.75 23.24ZM4.75 19.1399C4.38 19.1399 4.07996 19.4401 4.07996 19.8101V21.5601C4.07996 21.9301 4.38 22.23 4.75 22.23H7.75C8.12 22.23 8.42004 21.9301 8.42004 21.5601V19.8101C8.42004 19.4401 8.12 19.1399 7.75 19.1399H4.75Z" fill="#00213C"/>
</svg>
