<svg width="28" height="36" viewBox="0 0 28 36" fill="none" xmlns="http://www.w3.org/2000/svg">
<path d="M26.91 13.1399H24.08V10.45C24.08 4.89995 19.56 0.379883 14.01 0.379883C8.46001 0.379883 3.91998 4.89995 3.91998 10.45V13.1399H1.09998C0.679976 13.1399 0.349976 13.4799 0.349976 13.8899V29.98C0.349976 33.03 2.83001 35.52 5.89001 35.52H22.45C25.32 35.52 27.66 33.1901 27.66 30.3201V13.8899C27.66 13.4699 27.32 13.1399 26.91 13.1399ZM5.41998 10.45C5.41998 5.71995 9.27 1.87988 14 1.87988C18.73 1.87988 22.57 5.72995 22.57 10.45V13.1399H5.40997V10.45H5.41998ZM26.15 30.3201C26.15 32.3601 24.49 34.01 22.44 34.01H5.88C3.66 34.01 1.84003 32.2 1.84003 29.98V14.6499H26.15V30.3201Z" fill="#00213C"/>
<path d="M17.42 22.55C17.42 20.72 15.93 19.22 14.09 19.22C12.25 19.22 10.77 20.71 10.77 22.55C10.77 23.68 11.34 24.7101 12.26 25.3201L11.06 29.8401C11 30.0601 11.05 30.31 11.19 30.49C11.33 30.68 11.55 30.78 11.79 30.78H16.41C16.64 30.78 16.86 30.67 17.01 30.49C17.15 30.3 17.2 30.0601 17.14 29.8401L15.94 25.3201C16.86 24.7101 17.42 23.68 17.42 22.55ZM14.33 25.1299L15.43 29.27H12.77L13.87 25.1299C13.97 24.7699 13.78 24.38 13.43 24.24C12.73 23.95 12.28 23.29 12.28 22.55C12.28 21.54 13.09 20.73 14.09 20.73C15.09 20.73 15.91 21.53 15.91 22.55C15.91 23.29 15.46 23.96 14.77 24.24C14.42 24.38 14.23 24.7599 14.33 25.1299Z" fill="#00213C"/>
</svg>
