<svg width="23" height="23" viewBox="0 0 23 23" fill="none" xmlns="http://www.w3.org/2000/svg">
<path d="M10.8 19.3702V16.6802C10.16 16.6302 9.62995 16.5202 9.19995 16.3402C8.76995 16.1702 8.39998 15.9502 8.09998 15.7002C7.78998 15.4402 7.52002 15.1702 7.27002 14.8702L8.5 13.6602C8.62 13.8102 8.79004 14.0002 9.04004 14.2202C9.28004 14.4402 9.62004 14.6302 10.04 14.8102C10.46 14.9802 11 15.0702 11.65 15.0702C12.21 15.0702 12.66 15.0002 13 14.8602C13.34 14.7202 13.59 14.5502 13.74 14.3402C13.89 14.1402 13.97 13.9202 13.97 13.6902C13.97 13.3702 13.86 13.1002 13.65 12.8602C13.44 12.6302 13.01 12.4602 12.37 12.3402L10.87 12.0902C10.04 11.9502 9.39005 11.7602 8.93005 11.5202C8.47005 11.2802 8.14997 11.0002 7.96997 10.6602C7.78997 10.3202 7.69995 9.93021 7.69995 9.50021C7.69995 9.10021 7.8 8.72021 8 8.34021C8.2 7.96021 8.51998 7.63022 8.97998 7.35022C9.42998 7.07022 10.04 6.8802 10.79 6.7702V4.22021H12.52V6.75021C13.1 6.81021 13.63 6.97021 14.13 7.21021C14.63 7.45021 15.12 7.79022 15.61 8.23022L14.28 9.32022C14 9.06022 13.66 8.83022 13.26 8.63022C12.86 8.43022 12.33 8.32022 11.65 8.32022C11.19 8.32022 10.79 8.37021 10.46 8.47021C10.13 8.57021 9.86994 8.71023 9.68994 8.89023C9.50994 9.07023 9.42004 9.27021 9.42004 9.50021C9.42004 9.77021 9.56999 9.98021 9.85999 10.1202C10.15 10.2702 10.56 10.3802 11.09 10.4602L12.6801 10.7102C13.5001 10.8402 14.12 11.0502 14.55 11.3402C14.98 11.6302 15.27 11.9802 15.42 12.3802C15.57 12.7802 15.65 13.2002 15.65 13.6502C15.65 14.0102 15.55 14.4102 15.36 14.8402C15.17 15.2802 14.84 15.6602 14.39 16.0002C13.93 16.3402 13.31 16.5602 12.5 16.6602V19.3502H10.77L10.8 19.3702Z" fill="#00223E"/>
<path d="M4.04004 22.9002C3.95004 22.9002 3.86004 22.8702 3.79004 22.8102C3.67004 22.7202 3.62002 22.5602 3.65002 22.4202L4.14001 20.0902C1.75001 17.9802 0.390015 14.9702 0.390015 11.7802C0.390015 5.67018 5.35997 0.700195 11.47 0.700195C17.58 0.700195 22.55 5.67018 22.55 11.7802C22.55 17.8902 17.58 22.8602 11.47 22.8602C9.77997 22.8602 8.16002 22.4902 6.65002 21.7602L4.19995 22.8702C4.14995 22.8902 4.09003 22.9102 4.03003 22.9102L4.04004 22.9002ZM6.66003 20.9102C6.72003 20.9102 6.77997 20.9202 6.83997 20.9502C8.27997 21.6802 9.83997 22.0502 11.47 22.0502C17.14 22.0502 21.75 17.4402 21.75 11.7702C21.75 6.10017 17.14 1.49017 11.47 1.49017C5.79997 1.49017 1.18994 6.10017 1.18994 11.7702C1.18994 14.8002 2.51997 17.6702 4.83997 19.6302C4.94997 19.7302 4.99997 19.8702 4.96997 20.0202L4.58997 21.8102L6.48999 20.9502C6.53999 20.9302 6.60003 20.9102 6.66003 20.9102Z" fill="#00223E"/>
</svg>
