<svg width="22" height="16" viewBox="0 0 22 16" fill="none" xmlns="http://www.w3.org/2000/svg">
<path d="M4.07996 15.3502V12.6602C3.43996 12.6102 2.90998 12.5002 2.47998 12.3202C2.04998 12.1502 1.68 11.9302 1.38 11.6802C1.07 11.4202 0.800049 11.1502 0.550049 10.8502L1.78003 9.6402C1.90003 9.7902 2.06995 9.9802 2.31995 10.2002C2.55995 10.4202 2.89995 10.6102 3.31995 10.7902C3.73995 10.9602 4.28005 11.0502 4.93005 11.0502C5.49005 11.0502 5.94003 10.9802 6.28003 10.8402C6.62003 10.7002 6.87002 10.5302 7.02002 10.3202C7.17002 10.1202 7.25 9.9002 7.25 9.6702C7.25 9.3502 7.14005 9.08018 6.93005 8.84018C6.72005 8.61018 6.29002 8.44019 5.65002 8.32019L4.15002 8.07019C3.32002 7.93019 2.66996 7.74018 2.20996 7.50018C1.74996 7.26018 1.43 6.9802 1.25 6.6402C1.07 6.3002 0.97998 5.91019 0.97998 5.48019C0.97998 5.08019 1.08003 4.70019 1.28003 4.32019C1.48003 3.94019 1.80001 3.61017 2.26001 3.33017C2.71001 3.05017 3.31995 2.86018 4.06995 2.75018V0.200195H5.80005V2.73019C6.38005 2.79019 6.91003 2.95019 7.41003 3.19019C7.91003 3.43019 8.40001 3.77017 8.89001 4.21017L7.56006 5.30017C7.28006 5.04017 6.94004 4.81017 6.54004 4.61017C6.14004 4.41017 5.61005 4.30017 4.93005 4.30017C4.47005 4.30017 4.06999 4.3502 3.73999 4.4502C3.40999 4.5502 3.14997 4.69018 2.96997 4.87018C2.78997 5.05018 2.69995 5.25019 2.69995 5.48019C2.69995 5.75019 2.85001 5.96019 3.14001 6.10019C3.43001 6.25019 3.84 6.36019 4.37 6.44019L5.95996 6.69019C6.77996 6.82019 7.39996 7.03019 7.82996 7.32019C8.25996 7.61019 8.54995 7.96017 8.69995 8.36017C8.84995 8.76017 8.93005 9.18019 8.93005 9.63019C8.93005 9.99019 8.83001 10.3902 8.64001 10.8202C8.45001 11.2602 8.12004 11.6402 7.67004 11.9802C7.21004 12.3202 6.59003 12.5402 5.78003 12.6402V15.3302H4.05005L4.07996 15.3502Z" fill="#00223E"/>
<path d="M21.5699 8.09013C21.5699 8.01013 21.55 7.93014 21.52 7.85014C21.51 7.82014 21.52 7.82014 21.5 7.79014C21.46 7.71014 21.42 7.64012 21.36 7.58012C21.36 7.58012 21.35 7.57013 21.34 7.56013C21.34 7.56013 21.34 7.56012 21.33 7.55012C21.31 7.53012 21.26 7.49014 21.24 7.48014L15.35 3.51014C15.18 3.40014 14.98 3.35015 14.78 3.39015C14.58 3.43015 14.41 3.54012 14.29 3.71012C14.18 3.88012 14.14 4.08013 14.17 4.28013C14.21 4.48013 14.32 4.65014 14.49 4.76014L18.3199 7.34013H11.65C11.23 7.34013 10.89 7.68014 10.89 8.10014C10.89 8.52014 11.23 8.86012 11.65 8.86012H18.53L14.67 11.7601C14.51 11.8801 14.4 12.0601 14.37 12.2601C14.34 12.4601 14.4 12.6601 14.52 12.8201C14.66 13.0101 14.89 13.1201 15.13 13.1201C15.3 13.1201 15.46 13.0701 15.59 12.9701L21.28 8.69014C21.28 8.69014 21.33 8.66013 21.36 8.62013C21.42 8.56013 21.47 8.49014 21.49 8.44014C21.5 8.42014 21.51 8.39013 21.52 8.37013C21.55 8.30013 21.5599 8.23013 21.5699 8.15013C21.5699 8.15013 21.5699 8.10012 21.5699 8.08012V8.09013Z" fill="#00223E"/>
</svg>

