<svg width="123" height="35" viewBox="0 0 123 35" fill="none" xmlns="http://www.w3.org/2000/svg">
<path d="M24.83 3.70996H0.289978V11.5195H18.22C9.42997 12.8395 2.35998 19.3997 0.289978 27.9297H7.46997C9.56997 22.2197 15.06 18.1504 21.5 18.1504C22.64 18.1504 23.76 18.2803 24.83 18.5303V11.5303V3.71973V3.70996Z" fill="#B0FF51"/>
<path d="M17.02 20.9404V27.9297H24.83V20.6396C23.79 20.4096 22.69 20.2598 21.58 20.2598C19.98 20.2598 18.46 20.4904 17.01 20.9404H17.02Z" fill="#B0FF51"/>
<path d="M70.61 19.9102H56.55C56.65 21.3302 57.22 22.4204 58.26 23.1904C59.31 23.9604 60.64 24.3398 62.28 24.3398C63.19 24.3398 63.93 24.2503 64.48 24.0703C65.03 23.8903 65.48 23.6596 65.83 23.3896C66.18 23.1096 66.52 22.8401 66.86 22.5801L69.71 24.8496C69.08 25.4796 68.46 26.0197 67.84 26.4697C67.21 26.9297 66.47 27.2803 65.6 27.5303C64.73 27.7803 63.63 27.9102 62.28 27.9102C60.12 27.9102 58.31 27.5102 56.87 26.7002C55.43 25.9002 54.35 24.7801 53.64 23.3701C52.93 21.9501 52.58 20.33 52.58 18.5C52.58 16.67 52.89 15.0899 53.52 13.6699C54.14 12.2499 55.13 11.1303 56.48 10.3203C57.83 9.50031 59.58 9.08984 61.74 9.08984C63.9 9.08984 65.67 9.50031 66.97 10.3203C68.27 11.1403 69.2 12.2499 69.76 13.6699C70.32 15.0899 70.61 16.7 70.61 18.5V19.9102ZM56.59 16.8096H66.61C66.61 15.6596 66.21 14.6801 65.4 13.8701C64.59 13.0601 63.38 12.6602 61.74 12.6602C60.1 12.6602 58.92 13.0298 58.12 13.7598C57.31 14.4898 56.8 15.5096 56.59 16.8096Z" fill="#D8DCE2"/>
<path d="M51.89 24.2803H38.86L52.01 5.32031V3.66992H33.53V7.30957H46.31L33.19 26.2305V27.9199H55.7C55.7 27.9199 53.31 27.3003 51.88 24.2803H51.89Z" fill="#D8DCE2"/>
<path d="M83.13 6.5C82.52 6.5 81.99 6.27984 81.55 5.83984C81.11 5.39984 80.89 4.85973 80.89 4.21973C80.89 3.57973 81.11 3.07965 81.55 2.63965C81.99 2.19965 82.52 1.98047 83.13 1.98047C83.74 1.98047 84.27 2.19965 84.71 2.63965C85.15 3.07965 85.37 3.60973 85.37 4.21973C85.37 4.82973 85.15 5.39984 84.71 5.83984C84.27 6.27984 83.74 6.5 83.13 6.5ZM85.04 9.13965V27.9502H81.15V9.13965H85.04Z" fill="#D8DCE2"/>
<path d="M97.05 4.39991C96.4 4.59991 95.87 4.92909 95.51 5.55909C95.14 6.17909 94.96 7.11964 94.96 8.36964V9.13917H103.09V12.7398H94.96V27.9497H91.07V12.7398H88.72V9.13917H91.07V8.29933C91.07 6.43933 91.37 4.93933 91.97 3.79933C92.57 2.65933 93.43 1.84987 94.56 1.35987C94.56 1.35987 96.64 0.0297556 103.58 1.23976V4.70948C103.58 4.70948 99.16 3.74968 97.05 4.40968V4.39991Z" fill="#D8DCE2"/>
<path d="M77.55 0.769531H73.43V27.9805H77.55V0.769531Z" fill="#D8DCE2"/>
<path d="M118.19 9.13965L113.38 21.4004L108.24 9.13965H104.3L111.48 26.2598L108.1 34.8604H112.05L122.13 9.13965H118.19Z" fill="#D8DCE2"/>
</svg>
