<svg width="123" height="35" viewBox="0 0 123 35" fill="none" xmlns="http://www.w3.org/2000/svg">
<path d="M25.09 3.66992H0.549988V11.4799H18.48C9.69001 12.7999 2.61999 19.3599 0.549988 27.8899H7.73001C9.83001 22.1799 15.32 18.1099 21.76 18.1099C22.9 18.1099 24.02 18.2399 25.09 18.4899V11.4899V3.67992V3.66992Z" fill="#00223E"/>
<path d="M17.27 20.8997V27.8897H25.08V20.5997C24.04 20.3697 22.94 20.2197 21.83 20.2197C20.23 20.2197 18.71 20.4497 17.26 20.8997H17.27Z" fill="#00223E"/>
<path d="M70.87 19.8801H56.81C56.91 21.3001 57.48 22.3901 58.52 23.1601C59.57 23.9301 60.9 24.3101 62.54 24.3101C63.45 24.3101 64.19 24.2201 64.74 24.0401C65.29 23.8601 65.74 23.6301 66.09 23.3601C66.44 23.0801 66.78 22.8101 67.12 22.5501L69.97 24.8201C69.34 25.4501 68.72 25.9901 68.1 26.4401C67.47 26.9001 66.73 27.2501 65.86 27.5001C64.99 27.7501 63.89 27.8801 62.54 27.8801C60.38 27.8801 58.57 27.4801 57.13 26.6701C55.69 25.8701 54.61 24.7501 53.9 23.3401C53.19 21.9201 52.84 20.3001 52.84 18.4701C52.84 16.6401 53.15 15.0601 53.78 13.6401C54.4 12.2201 55.39 11.1001 56.74 10.2901C58.09 9.47006 59.84 9.06006 62 9.06006C64.16 9.06006 65.93 9.47006 67.23 10.2901C68.53 11.1101 69.46 12.2201 70.02 13.6401C70.58 15.0601 70.87 16.6701 70.87 18.4701V19.8801ZM56.85 16.7701H66.87C66.87 15.6201 66.47 14.6401 65.66 13.8301C64.85 13.0201 63.64 12.6201 62 12.6201C60.36 12.6201 59.18 12.9901 58.38 13.7201C57.57 14.4501 57.06 15.4701 56.85 16.7701Z" fill="#004196"/>
<path d="M52.15 24.2399H39.12L52.27 5.27988V3.62988H33.79V7.26988H46.57L33.45 26.1899V27.8799H55.96C55.96 27.8799 53.57 27.2599 52.14 24.2399H52.15Z" fill="#004196"/>
<path d="M83.39 6.45994C82.78 6.45994 82.25 6.23994 81.81 5.79994C81.37 5.35994 81.15 4.81994 81.15 4.17994C81.15 3.53994 81.37 3.03994 81.81 2.59994C82.25 2.15994 82.78 1.93994 83.39 1.93994C84 1.93994 84.53 2.15994 84.97 2.59994C85.41 3.03994 85.63 3.56994 85.63 4.17994C85.63 4.78994 85.41 5.35994 84.97 5.79994C84.53 6.23994 84 6.45994 83.39 6.45994ZM85.3 9.10994V27.9199H81.41V9.10994H85.3Z" fill="#004196"/>
<path d="M97.31 4.37C96.66 4.57 96.13 4.9 95.77 5.53C95.4 6.15 95.22 7.08999 95.22 8.33999V9.11H103.35V12.71H95.22V27.92H91.33V12.71H88.98V9.11H91.33V8.26999C91.33 6.40999 91.63 4.90999 92.23 3.76999C92.83 2.62999 93.69 1.82 94.82 1.33C94.82 1.33 96.9 -2.98023e-06 103.84 1.21V4.68C103.84 4.68 99.42 3.72 97.31 4.38V4.37Z" fill="#004196"/>
<path d="M77.81 0.72998H73.69V27.94H77.81V0.72998Z" fill="#004196"/>
<path d="M118.45 9.10986L113.64 21.3599L108.5 9.10986H104.55L111.73 26.2299L108.36 34.8199H112.31L122.39 9.10986H118.45Z" fill="#004196"/>
</svg>
